HIERARCHY
ROOT Hips
{
  OFFSET 5.72205e-005 65.662 3.42586
  CHANNELS 6 Xposition Yposition Zposition Zrotation Xrotation Yrotation
  JOINT Chest
  {
    OFFSET 0 8.7983 -4.7612
    CHANNELS 3 Zrotation Xrotation Yrotation
    JOINT Chest2
    {
      OFFSET 0 8.0291 0.4195
      CHANNELS 3 Zrotation Xrotation Yrotation
      JOINT Chest3
      {
        OFFSET 0 9.9351 -2.2114
        CHANNELS 3 Zrotation Xrotation Yrotation
        JOINT Neck
        {
          OFFSET 0 22.3885 -0.4656
          CHANNELS 3 Zrotation Xrotation Yrotation
          JOINT Head
          {
            OFFSET -0.0001 12.643 3.4389
            CHANNELS 3 Zrotation Xrotation Yrotation
            End Site
            {
              OFFSET 0.0001 17.6655 0.5274
            }
          }
        }
        JOINT LeftCollar
        {
          OFFSET 2.2603 21.606 7.4023
          CHANNELS 3 Zrotation Xrotation Yrotation
          JOINT LeftShoulder
          {
            OFFSET 13.5163 -1.1332 -5.0146
            CHANNELS 3 Zrotation Xrotation Yrotation
            JOINT LeftElbow
            {
              OFFSET -0.0995 -28.05 -0.2431
              CHANNELS 3 Zrotation Xrotation Yrotation
              JOINT LeftWrist
              {
                OFFSET 0.0679 -23.3996 -0.1402
                CHANNELS 3 Zrotation Xrotation Yrotation
                JOINT LeftFinger1
                {
                  OFFSET 0.7932 -9.069 2.5189
                  CHANNELS 3 Zrotation Xrotation Yrotation
                  JOINT LeftFinger11
                  {
                    OFFSET -0.8272 -3.3923 0.5977
                    CHANNELS 3 Zrotation Xrotation Yrotation
                    JOINT LeftFinger12
                    {
                      OFFSET -0.5649 -2.3158 0.4082
                      CHANNELS 3 Zrotation Xrotation Yrotation
                      End Site
                      {
                        OFFSET -0.4919 -1.6479 0.2673
                      }
                    }
                  }
                }
                JOINT LeftFinger2
                {
                  OFFSET 0.9159 -9.2044 0.2193
                  CHANNELS 3 Zrotation Xrotation Yrotation
                  JOINT LeftFinger21
                  {
                    OFFSET 0.0117 -4.1944 -0.0248
                    CHANNELS 3 Zrotation Xrotation Yrotation
                    JOINT LeftFinger22
                    {
                      OFFSET 0.0071 -2.3249 -0.0142
                      CHANNELS 3 Zrotation Xrotation Yrotation
                      End Site
                      {
                        OFFSET -0.1475 -2.0882 0.0028
                      }
                    }
                  }
                }
                JOINT LeftFinger3
                {
                  OFFSET 0.6113 -8.7231 -2.0637
                  CHANNELS 3 Zrotation Xrotation Yrotation
                  JOINT LeftFinger31
                  {
                    OFFSET -0.1927 -3.8059 -0.2383
                    CHANNELS 3 Zrotation Xrotation Yrotation
                    JOINT LeftFinger32
                    {
                      OFFSET -0.1091 -2.1688 -0.1362
                      CHANNELS 3 Zrotation Xrotation Yrotation
                      End Site
                      {
                        OFFSET -0.2358 -1.9176 -0.0906
                      }
                    }
                  }
                }
                JOINT LeftFinger4
                {
                  OFFSET -0.6151 -8.0947 -3.5641
                  CHANNELS 3 Zrotation Xrotation Yrotation
                  JOINT LeftFinger41
                  {
                    OFFSET -0.4882 -2.341 -0.6462
                    CHANNELS 3 Zrotation Xrotation Yrotation
                    JOINT LeftFinger42
                    {
                      OFFSET -0.3575 -1.7167 -0.4742
                      CHANNELS 3 Zrotation Xrotation Yrotation
                      End Site
                      {
                        OFFSET -0.4187 -1.5237 -0.3496
                      }
                    }
                  }
                }
                JOINT LeftFinger0
                {
                  OFFSET -1.42 -1.8761 1.4223
                  CHANNELS 3 Zrotation Xrotation Yrotation
                  JOINT LeftFinger01
                  {
                    OFFSET -1.1471 -3.4929 2.6334
                    CHANNELS 3 Zrotation Xrotation Yrotation
                    JOINT LeftFinger02
                    {
                      OFFSET -0.823 -2.3 1.6571
                      CHANNELS 3 Zrotation Xrotation Yrotation
                      End Site
                      {
                        OFFSET -0.5822 -1.6914 1.1582
                      }
                    }
                  }
                }
              }
            }
          }
        }
        JOINT RightCollar
        {
          OFFSET -2.2603 21.606 7.4023
          CHANNELS 3 Zrotation Xrotation Yrotation
          JOINT RightShoulder
          {
            OFFSET -13.5187 -1.1334 -5.0155
            CHANNELS 3 Zrotation Xrotation Yrotation
            JOINT RightElbow
            {
              OFFSET 0.0994 -28.0499 -0.2431
              CHANNELS 3 Zrotation Xrotation Yrotation
              JOINT RightWrist
              {
                OFFSET -0.0679 -23.3996 -0.1402
                CHANNELS 3 Zrotation Xrotation Yrotation
                JOINT RightFinger1
                {
                  OFFSET -0.7932 -9.0691 2.5189
                  CHANNELS 3 Zrotation Xrotation Yrotation
                  JOINT RightFinger11
                  {
                    OFFSET 0.8272 -3.3923 0.5977
                    CHANNELS 3 Zrotation Xrotation Yrotation
                    JOINT RightFinger12
                    {
                      OFFSET 0.565 -2.3158 0.4082
                      CHANNELS 3 Zrotation Xrotation Yrotation
                      End Site
                      {
                        OFFSET 0.4919 -1.6479 0.2673
                      }
                    }
                  }
                }
                JOINT RightFinger2
                {
                  OFFSET -0.916 -9.2044 0.2193
                  CHANNELS 3 Zrotation Xrotation Yrotation
                  JOINT RightFinger21
                  {
                    OFFSET -0.0117 -4.1944 -0.0248
                    CHANNELS 3 Zrotation Xrotation Yrotation
                    JOINT RightFinger22
                    {
                      OFFSET -0.0071 -2.3249 -0.0142
                      CHANNELS 3 Zrotation Xrotation Yrotation
                      End Site
                      {
                        OFFSET 0.1475 -2.0882 0.0028
                      }
                    }
                  }
                }
                JOINT RightFinger3
                {
                  OFFSET -0.6113 -8.7231 -2.0637
                  CHANNELS 3 Zrotation Xrotation Yrotation
                  JOINT RightFinger31
                  {
                    OFFSET 0.1927 -3.8059 -0.2383
                    CHANNELS 3 Zrotation Xrotation Yrotation
                    JOINT RightFinger32
                    {
                      OFFSET 0.1091 -2.1688 -0.1362
                      CHANNELS 3 Zrotation Xrotation Yrotation
                      End Site
                      {
                        OFFSET 0.2358 -1.9176 -0.0906
                      }
                    }
                  }
                }
                JOINT RightFinger4
                {
                  OFFSET 0.6151 -8.0947 -3.564
                  CHANNELS 3 Zrotation Xrotation Yrotation
                  JOINT RightFinger41
                  {
                    OFFSET 0.4882 -2.341 -0.6462
                    CHANNELS 3 Zrotation Xrotation Yrotation
                    JOINT RightFinger42
                    {
                      OFFSET 0.3574 -1.7166 -0.4742
                      CHANNELS 3 Zrotation Xrotation Yrotation
                      End Site
                      {
                        OFFSET 0.4187 -1.5237 -0.3496
                      }
                    }
                  }
                }
                JOINT RightFinger0
                {
                  OFFSET 1.4199 -1.8761 1.4221
                  CHANNELS 3 Zrotation Xrotation Yrotation
                  JOINT RightFinger01
                  {
                    OFFSET 1.1472 -3.4929 2.6336
                    CHANNELS 3 Zrotation Xrotation Yrotation
                    JOINT RightFinger02
                    {
                      OFFSET 0.8229 -2.3 1.6571
                      CHANNELS 3 Zrotation Xrotation Yrotation
                      End Site
                      {
                        OFFSET 0.5822 -1.6914 1.1582
                      }
                    }
                  }
                }
              }
            }
          }
        }
      }
    }
  }
  JOINT RightHip
  {
    OFFSET -9.412 3.9771 -0.7758
    CHANNELS 3 Zrotation Xrotation Yrotation
    JOINT RightKnee
    {
      OFFSET -0.7531 -40.938 0
      CHANNELS 3 Zrotation Xrotation Yrotation
      JOINT RightAnkle
      {
        OFFSET 0 -40.1986 0
        CHANNELS 3 Zrotation Xrotation Yrotation
        JOINT RightToe
        {
          OFFSET 0 -4.4182 9.239
          CHANNELS 3 Zrotation Xrotation Yrotation
          End Site
          {
            OFFSET 0 0 6.1981
          }
        }
      }
    }
  }
  JOINT LeftHip
  {
    OFFSET 9.4119 3.9773 -0.7758
    CHANNELS 3 Zrotation Xrotation Yrotation
    JOINT LeftKnee
    {
      OFFSET 0.7532 -40.9383 0
      CHANNELS 3 Zrotation Xrotation Yrotation
      JOINT LeftAnkle
      {
        OFFSET 0 -40.1986 0
        CHANNELS 3 Zrotation Xrotation Yrotation
        JOINT LeftToe
        {
          OFFSET 0 -4.4182 9.239
          CHANNELS 3 Zrotation Xrotation Yrotation
          End Site
          {
            OFFSET 0 0 6.1981
          }
        }
      }
    }
  }
}
MOTION
Frames:	6
Frame Time:	0.0333333
5.72205e-005 65.662 3.42586 0 0 -0 0 0 -0 0 0 -0 0 0 -0 0 0 -0 0 0 -0 0 0 -12.5014 88.1196 14.2451 10.6914 -0.00160068 -0.00239207 0.000740045 -8.4365e-005 7.00714e-005 -9.52055e-007 9.93923e-017 -1.98785e-016 -1.59028e-015 9.93923e-017 -5.96354e-016 -1.59028e-015 -9.93923e-017 -5.96354e-016 -1.59028e-015 9.93923e-017 -1.98785e-016 -1.59028e-015 -0.0128176 0.00232552 8.52707e-005 9.93923e-017 5.96354e-016 -0 9.93923e-017 -1.98785e-016 -1.59028e-015 -0.0160551 0.00299681 0.000857156 -2.48481e-016 0 3.18055e-015 9.93923e-017 -1.98785e-016 -1.59028e-015 -0.0125865 0.0031206 0.00282719 0 1.98785e-016 -0 9.93923e-017 -1.98785e-016 -1.59028e-015 9.93923e-017 -5.96354e-016 -1.59028e-015 -9.93923e-017 -5.96354e-016 -1.59028e-015 -0.865644 0.16582 7.03859 -88.0329 10.2057 -10.5567 0.0015593 -0.00248883 -0.000788628 7.87605e-005 4.10553e-005 1.24965e-005 -3.97569e-016 -7.95139e-016 3.18055e-015 -1.98785e-016 -3.97569e-016 3.18055e-015 -1.98785e-016 0 3.18055e-015 -3.97569e-016 -7.95139e-016 3.18055e-015 0.0129473 0.00231697 -8.70038e-005 9.93923e-017 -7.95139e-016 1.59028e-015 -3.97569e-016 -7.95139e-016 3.18055e-015 0.0163314 0.00303369 -0.000872333 3.97569e-016 7.95139e-016 -3.18055e-015 -3.97569e-016 -7.95139e-016 3.18055e-015 0.0145763 0.00367772 -0.00326275 9.93923e-017 -3.97569e-016 -0 -3.97569e-016 -7.95139e-016 3.18055e-015 -1.98785e-016 -3.97569e-016 3.18055e-015 -1.98785e-016 0 3.18055e-015 3.42482 1.32465 -0.0626183 0.000117508 0.717283 0.000978199 -3.4257 -2.04197 -0.0604716 6.47761e-025 0 -0 -3.42483 1.34017 0.0627307 -0.000193936 0.682302 -0.0013703 3.42574 -2.02253 0.0595886 -8.45714e-024 0 -7.40531e-025 
-3.15895 1.56039 9.64886 -72.0422 -89.9972 -161.041 0.133229 -0.152338 -0.279456 0.265715 -0.305313 -0.558602 0.265708 -0.305306 -0.55858 3.82837 -0.785992 -0.010626 19.1606 -1.65068 -0.145244 -30.2898 -8.99801 -14.2567 49.2446 19.0564 -11.4044 -37.1342 -62.6977 -12.4093 -12.3548 -18.8079 18.419 2.38542e-015 1.08883e-006 3.18055e-015 1.71033e-006 -4.11103e-006 -1.23332e-006 -6.36111e-015 -4.77083e-015 -0 2.38542e-015 1.08883e-006 3.18055e-015 -0.0128183 0.00232459 9.1518e-005 3.18055e-015 -3.18055e-015 -3.18055e-015 2.38542e-015 1.08883e-006 3.18055e-015 -0.0160577 0.00298834 0.000858341 7.95139e-016 0 1.27222e-014 2.38542e-015 1.08883e-006 3.18055e-015 -0.0125673 0.00311683 0.00282025 2.38542e-015 4.77083e-015 3.18055e-015 2.38542e-015 1.08883e-006 3.18055e-015 1.71033e-006 -4.11103e-006 -1.23332e-006 -6.36111e-015 -4.77083e-015 -0 -26.4965 3.18464 -7.64979 -170.034 -66.3347 -172.68 -11.809 -48.4412 -12.4303 -21.2231 -9.60288 -14.6109 -2.10071e-006 -6.08289e-006 -7.1616e-006 -1.59028e-015 1.19271e-015 -9.93923e-017 0 7.95139e-016 -0 -2.10071e-006 -6.08289e-006 -7.1616e-006 0.0129385 0.00231518 -7.67173e-005 -1.59028e-015 0 2.98177e-016 -2.10071e-006 -6.08289e-006 -7.1616e-006 0.0163166 0.00302863 -0.000866514 -1.68996e-006 3.64474e-006 -9.92952e-008 -2.10071e-006 -6.08289e-006 -7.1616e-006 0.0145637 0.00368478 -0.00324497 1.59028e-015 1.19271e-015 7.95139e-016 -2.10071e-006 -6.08289e-006 -7.1616e-006 -1.59028e-015 1.19271e-015 -9.93923e-017 0 7.95139e-016 -0 -0.80771 -2.77135 -1.87287 10.5489 61.1355 -10.3843 -2.30481 12.4922 8.7168 1.02309e-005 1.6121e-006 -1.7427e-006 -19.0845 -31.0992 -7.72672 35.8728 50.6891 -17.9848 -5.10415 1.7027 -17.2035 -1.60693e-006 -2.2035e-006 3.98485e-006 
-3.15895 1.56039 9.64886 -72.0422 -89.9972 -161.041 0.133229 -0.152338 -0.279456 0.265715 -0.305313 -0.558602 0.265708 -0.305306 -0.55858 3.65608 -0.781195 -0.011738 18.9166 -1.68312 -0.247554 -30.2898 -8.99801 -14.2567 49.2794 18.4418 -10.8647 -37.7793 -63.5039 -13.2925 -12.4782 -18.3084 18.4212 -2.79365e-006 1.85919e-006 -4.32435e-007 1.71302e-006 8.57132e-007 -1.22545e-006 -5.56597e-015 4.77083e-015 -0 -2.79365e-006 1.85919e-006 -4.32435e-007 -0.012783 0.00231624 8.35411e-005 1.08198e-005 -5.65129e-006 7.39391e-006 -2.79365e-006 1.85919e-006 -4.32435e-007 -0.016037 0.00299577 0.000851333 1.02804e-005 -5.93624e-006 1.92589e-006 -2.79365e-006 1.85919e-006 -4.32435e-007 -0.0125852 0.00312417 0.002825 -8.74653e-015 1.59028e-015 -0 -2.79365e-006 1.85919e-006 -4.32435e-007 1.71302e-006 8.57132e-007 -1.22545e-006 -5.56597e-015 4.77083e-015 -0 -26.4965 3.18464 -7.64979 -170.034 -66.3347 -172.68 -11.8088 -48.4412 -12.4303 -21.2231 -9.60289 -14.6109 2.92731e-006 -6.44653e-008 2.7147e-007 1.87696e-006 4.49322e-007 -3.30933e-006 -1.59028e-015 -7.95139e-016 -2.98177e-016 2.92731e-006 -6.44653e-008 2.7147e-007 0.0129623 0.00230751 -9.97468e-005 6.89673e-034 -3.97569e-016 9.93923e-017 2.92731e-006 -6.44653e-008 2.7147e-007 0.0163332 0.00302457 -0.000874282 -2.75869e-033 7.95139e-016 1.98785e-016 2.92731e-006 -6.44653e-008 2.7147e-007 0.0145711 0.00367494 -0.00326193 -2.06902e-033 7.95139e-016 1.49089e-016 2.92731e-006 -6.44653e-008 2.7147e-007 1.87696e-006 4.49322e-007 -3.30933e-006 -1.59028e-015 -7.95139e-016 -2.98177e-016 -0.80771 -2.77135 -1.87287 10.549 61.1355 -10.3844 -2.30482 12.4922 8.7168 -5.47815e-007 -1.5722e-006 -1.59968e-006 -19.0845 -31.0992 -7.72672 35.8728 50.6891 -17.9848 -5.10415 1.7027 -17.2035 -1.60693e-006 -2.2035e-006 3.98485e-006 
-3.15895 1.56039 9.64886 -72.0422 -89.9972 -161.041 0.133229 -0.152338 -0.279456 0.265715 -0.305313 -0.558602 0.265708 -0.305306 -0.55858 3.48375 -0.776402 -0.0128285 18.6724 -1.71517 -0.350124 -30.2898 -8.99801 -14.2567 49.3223 17.8207 -10.3254 -38.471 -64.3044 -14.219 -12.6014 -17.8082 18.4246 -3.18055e-015 0 -6.36111e-015 -3.97569e-015 1.59028e-015 6.36111e-015 5.74087e-007 -2.23315e-006 -2.91469e-006 -3.18055e-015 0 -6.36111e-015 -0.012815 0.0023232 8.03046e-005 -2.86914e-007 -1.05891e-006 1.45733e-006 -3.18055e-015 0 -6.36111e-015 -0.0160434 0.00299781 0.000846764 1.59028e-015 -4.77083e-015 -3.18055e-015 -3.18055e-015 0 -6.36111e-015 -0.0126095 0.00312891 0.00282367 5.50552e-006 -4.62208e-007 4.05477e-006 -3.18055e-015 0 -6.36111e-015 -3.97569e-015 1.59028e-015 6.36111e-015 5.74087e-007 -2.23315e-006 -2.91469e-006 -26.4965 3.18462 -7.6498 -170.032 -66.3351 -172.678 -11.8083 -48.4417 -12.4305 -21.2231 -9.60288 -14.6108 4.77083e-015 -3.97569e-016 -2.98177e-016 3.18055e-015 0 9.93923e-017 3.18055e-015 0 -0 4.77083e-015 -3.97569e-016 -2.98177e-016 0.0129602 0.00230239 -8.59011e-005 -2.10202e-006 -5.88905e-006 -7.16168e-006 4.77083e-015 -3.97569e-016 -2.98177e-016 0.0163231 0.00303333 -0.000876591 5.15186e-031 2.38542e-015 -1.23743e-014 4.77083e-015 -3.97569e-016 -2.98177e-016 0.0145717 0.00367289 -0.00325829 4.65778e-006 5.45822e-007 -6.76412e-006 4.77083e-015 -3.97569e-016 -2.98177e-016 3.18055e-015 0 9.93923e-017 3.18055e-015 0 -0 -0.80771 -2.77135 -1.87287 10.549 61.1355 -10.3844 -2.30482 12.4922 8.7168 -6.95133e-007 6.96643e-007 -1.66171e-006 -19.0845 -31.0991 -7.72673 35.8728 50.6891 -17.9848 -5.10418 1.70269 -17.2035 -2.15091e-006 5.53339e-007 -8.48774e-006 
-3.15895 1.56039 9.64886 -72.0422 -89.9972 -161.041 0.133229 -0.152338 -0.279456 0.265715 -0.305313 -0.558602 0.265708 -0.305306 -0.55858 3.31134 -0.77162 -0.0139212 18.4279 -1.74678 -0.452908 -30.2898 -8.99801 -14.2567 49.3696 17.2025 -9.78556 -39.2194 -65.1055 -15.2052 -12.7244 -17.3076 18.4291 -1.03368e-014 1.11319e-014 3.18055e-015 -7.95139e-016 3.18055e-015 3.18055e-015 -1.59028e-015 -1.59028e-015 -3.18055e-015 -1.03368e-014 1.11319e-014 3.18055e-015 -0.0128034 0.00232598 8.87835e-005 -3.53113e-031 3.18055e-015 6.36111e-015 -1.03368e-014 1.11319e-014 3.18055e-015 -0.0160367 0.00299756 0.000859763 -1.59028e-015 3.18055e-015 -0 -1.03368e-014 1.11319e-014 3.18055e-015 -0.0126055 0.00312441 0.00282704 7.15625e-015 -6.36111e-015 -0 -1.03368e-014 1.11319e-014 3.18055e-015 -7.95139e-016 3.18055e-015 3.18055e-015 -1.59028e-015 -1.59028e-015 -3.18055e-015 -26.4965 3.18464 -7.64979 -170.034 -66.3347 -172.68 -11.8089 -48.4412 -12.4303 -21.2231 -9.6029 -14.6109 -3.10353e-033 -1.19271e-015 -1.49089e-016 2.47481e-006 1.21806e-007 3.44519e-007 -1.37935e-033 3.97569e-016 1.98785e-016 -3.10353e-033 -1.19271e-015 -1.49089e-016 0.012955 0.00231547 -9.12329e-005 1.78356e-006 2.78648e-008 -1.60499e-006 -3.10353e-033 -1.19271e-015 -1.49089e-016 0.0163289 0.00302971 -0.000874337 3.18055e-015 0 1.49089e-016 -3.10353e-033 -1.19271e-015 -1.49089e-016 0.0145595 0.00368327 -0.0032606 3.18055e-015 7.95139e-016 -4.96962e-017 -3.10353e-033 -1.19271e-015 -1.49089e-016 2.47481e-006 1.21806e-007 3.44519e-007 -1.37935e-033 3.97569e-016 1.98785e-016 -0.80771 -2.77135 -1.87287 10.549 61.1355 -10.3844 -2.30482 12.4922 8.7168 -5.47815e-007 -1.5722e-006 -1.59968e-006 -19.0845 -31.0992 -7.72672 35.8728 50.6891 -17.9848 -5.10415 1.7027 -17.2035 -1.60693e-006 -2.2035e-006 3.98485e-006 
-3.15895 1.56039 9.64886 -72.0422 -89.9972 -161.041 0.133229 -0.152338 -0.279456 0.265715 -0.305313 -0.558602 0.265708 -0.305306 -0.55858 3.13888 -0.76681 -0.0149821 18.1831 -1.77801 -0.555918 -30.2898 -8.99802 -14.2567 49.4231 16.5826 -9.24554 -40.0272 -65.9031 -16.2504 -12.8473 -16.8065 18.4348 2.28603e-007 9.38619e-007 -1.48721e-006 -5.56597e-015 1.59028e-015 -3.18055e-015 1.94878e-006 1.236e-006 -2.68601e-006 2.28603e-007 9.38619e-007 -1.48721e-006 -0.0128124 0.00231919 8.55669e-005 2.28483e-007 9.38681e-007 -1.4872e-006 2.28603e-007 9.38619e-007 -1.48721e-006 -0.0160649 0.00299674 0.000859707 1.59028e-015 9.40537e-007 -6.36111e-015 2.28603e-007 9.38619e-007 -1.48721e-006 -0.0125726 0.00311351 0.00283209 -1.59028e-015 1.79109e-006 9.54166e-015 2.28603e-007 9.38619e-007 -1.48721e-006 -5.56597e-015 1.59028e-015 -3.18055e-015 1.94878e-006 1.236e-006 -2.68601e-006 -26.4965 3.18464 -7.64979 -170.035 -66.3345 -172.681 -11.8093 -48.4409 -12.4302 -21.2231 -9.60285 -14.6109 -1.87695e-006 -2.49905e-007 3.30933e-006 0 0 -5.96354e-016 -3.37981e-006 -1.43951e-007 -1.98418e-007 -1.87695e-006 -2.49905e-007 3.30933e-006 0.0129331 0.00230921 -8.57833e-005 1.59028e-015 3.97569e-016 -3.97569e-016 -1.87695e-006 -2.49905e-007 3.30933e-006 0.0163318 0.0030412 -0.000872758 6.79903e-006 -2.67853e-006 -6.7381e-006 -1.87695e-006 -2.49905e-007 3.30933e-006 0.0145694 0.00367777 -0.00326204 -1.59028e-015 -1.59028e-015 4.96962e-017 -1.87695e-006 -2.49905e-007 3.30933e-006 0 0 -5.96354e-016 -3.37981e-006 -1.43951e-007 -1.98418e-007 -0.80771 -2.77135 -1.87287 10.549 61.1355 -10.3844 -2.30482 12.4922 8.7168 -6.95133e-007 6.96643e-007 -1.66171e-006 -19.0845 -31.0991 -7.72673 35.8729 50.6891 -17.9848 -5.10418 1.70268 -17.2035 2.18798e-006 -1.22803e-006 3.83422e-006 
